# xmcd CD database file
#
# Track frame offsets:
#	150
#	30092
#	56621
#	81353
#	110153
#	143899
#	186826
#
# Disc length: 2877 seconds
#
# Revision: 0
# Processed by: cddbd v1.5.2PL0 Copyright (c) Steve Scherf et al.
# Submitted via: CDex 1.70beta2
#
DISCID=5a0b3b07
DTITLE=Chuck Marohnic - Morning Prayer
DYEAR=1900
DGENRE=Jazz
TTITLE0=Sanctus
TTITLE1=Freedom, Lost and Found
TTITLE2=Morning Prayer
TTITLE3=Just In Time
TTITLE4=Here I Am Lord
TTITLE5=Finding Calcutta
TTITLE6=Nature Boy
EXTD=
EXTT0=
EXTT1=
EXTT2=
EXTT3=
EXTT4=
EXTT5=
EXTT6=
PLAYORDER=
